<svg xmlns="http://www.w3.org/2000/svg" xmlns:xlink="http://www.w3.org/1999/xlink" width="500" zoomAndPan="magnify" viewBox="0 0 375 374.999991" height="500" preserveAspectRatio="xMidYMid meet" version="1.0"><defs><g/><clipPath id="b07b48a8c0"><path d="M 78.085938 0 L 296.394531 0 L 296.394531 252.859375 L 78.085938 252.859375 Z M 78.085938 0 " clip-rule="nonzero"/></clipPath></defs><g clip-path="url(#b07b48a8c0)"><path fill="#1848a0" d="M 247.511719 133.015625 L 223.066406 147.207031 L 198.625 161.347656 L 198.625 133.015625 L 223.066406 118.878906 L 247.511719 104.738281 L 271.953125 90.550781 L 271.953125 175.484375 L 187.265625 224.566406 L 151.414062 203.8125 L 151.414062 105.707031 L 172.207031 93.652344 L 175.855469 91.515625 L 187.265625 84.953125 L 198.625 78.34375 L 211.710938 70.816406 L 236.152344 56.625 L 260.59375 42.488281 L 241.832031 31.601562 L 236.152344 28.347656 L 187.265625 0.0195312 L 132.652344 31.601562 L 78.085938 63.238281 L 78.085938 189.675781 L 102.53125 203.8125 L 102.53125 77.375 L 187.265625 28.347656 L 211.710938 42.488281 L 198.625 50.066406 L 187.265625 56.625 L 175.855469 63.238281 L 159.984375 72.441406 L 126.972656 91.515625 L 126.972656 217.953125 L 132.652344 221.257812 L 151.414062 232.144531 L 187.265625 252.84375 L 241.832031 221.257812 L 296.394531 189.675781 L 296.394531 63.238281 L 285.035156 56.625 L 260.59375 70.816406 L 236.152344 84.953125 L 211.710938 99.09375 L 198.625 106.671875 L 187.265625 113.234375 L 175.855469 119.84375 L 175.855469 189.675781 L 187.265625 196.234375 L 198.625 189.675781 L 247.511719 161.347656 Z M 247.511719 133.015625 " fill-opacity="1" fill-rule="evenodd"/></g><g fill="#222222" fill-opacity="1"><g transform="translate(-3.247222, 320.959651)"><g><path d="M 20.671875 -29.625 C 18.273438 -29.625 16.398438 -28.640625 15.046875 -26.671875 C 13.703125 -24.703125 13.03125 -21.988281 13.03125 -18.53125 C 13.03125 -11.34375 15.765625 -7.75 21.234375 -7.75 C 22.890625 -7.75 24.492188 -7.976562 26.046875 -8.4375 C 27.597656 -8.894531 29.15625 -9.445312 30.71875 -10.09375 L 30.71875 -1.5625 C 27.601562 -0.175781 24.078125 0.515625 20.140625 0.515625 C 14.503906 0.515625 10.179688 -1.117188 7.171875 -4.390625 C 4.160156 -7.660156 2.65625 -12.390625 2.65625 -18.578125 C 2.65625 -22.441406 3.382812 -25.835938 4.84375 -28.765625 C 6.300781 -31.703125 8.394531 -33.957031 11.125 -35.53125 C 13.863281 -37.113281 17.082031 -37.90625 20.78125 -37.90625 C 24.820312 -37.90625 28.679688 -37.023438 32.359375 -35.265625 L 29.265625 -27.328125 C 27.878906 -27.972656 26.492188 -28.515625 25.109375 -28.953125 C 23.734375 -29.398438 22.253906 -29.625 20.671875 -29.625 Z M 20.671875 -29.625 "/></g></g></g><g fill="#222222" fill-opacity="1"><g transform="translate(34.280191, 320.959651)"><g><path d="M 26.21875 0 L 4.03125 0 L 4.03125 -37.359375 L 26.21875 -37.359375 L 26.21875 -29.265625 L 14.140625 -29.265625 L 14.140625 -23.390625 L 25.328125 -23.390625 L 25.328125 -15.28125 L 14.140625 -15.28125 L 14.140625 -8.234375 L 26.21875 -8.234375 Z M 26.21875 0 "/></g></g></g><g fill="#222222" fill-opacity="1"><g transform="translate(66.568075, 320.959651)"><g><path d="M 35.953125 0 L 24.5625 0 L 17.171875 -14.28125 L 14.1875 -12.5 L 14.1875 0 L 4.03125 0 L 4.03125 -37.359375 L 14.1875 -37.359375 L 14.1875 -21.140625 C 14.695312 -22.140625 15.726562 -23.734375 17.28125 -25.921875 L 25.125 -37.359375 L 36.171875 -37.359375 L 24.375 -20.625 Z M 35.953125 0 "/></g></g></g><g fill="#222222" fill-opacity="1"><g transform="translate(106.089056, 320.959651)"><g/></g></g><g fill="#222222" fill-opacity="1"><g transform="translate(123.246244, 320.959651)"><g><path d="M 19.046875 -21.875 L 35.171875 -21.875 L 35.171875 -1.734375 C 30.785156 -0.234375 25.972656 0.515625 20.734375 0.515625 C 14.972656 0.515625 10.519531 -1.148438 7.375 -4.484375 C 4.226562 -7.828125 2.65625 -12.59375 2.65625 -18.78125 C 2.65625 -24.8125 4.375 -29.503906 7.8125 -32.859375 C 11.257812 -36.222656 16.082031 -37.90625 22.28125 -37.90625 C 24.632812 -37.90625 26.851562 -37.679688 28.9375 -37.234375 C 31.03125 -36.796875 32.851562 -36.234375 34.40625 -35.546875 L 31.203125 -27.625 C 28.515625 -28.957031 25.5625 -29.625 22.34375 -29.625 C 19.394531 -29.625 17.113281 -28.664062 15.5 -26.75 C 13.894531 -24.832031 13.09375 -22.09375 13.09375 -18.53125 C 13.09375 -15.039062 13.816406 -12.378906 15.265625 -10.546875 C 16.722656 -8.710938 18.828125 -7.796875 21.578125 -7.796875 C 23.078125 -7.796875 24.457031 -7.941406 25.71875 -8.234375 L 25.71875 -14.078125 L 19.046875 -14.078125 Z M 19.046875 -21.875 "/></g></g></g><g fill="#222222" fill-opacity="1"><g transform="translate(165.55311, 320.959651)"><g><path d="M 35.8125 -37.359375 L 35.8125 -14.875 C 35.8125 -9.988281 34.425781 -6.203125 31.65625 -3.515625 C 28.882812 -0.828125 24.894531 0.515625 19.6875 0.515625 C 14.582031 0.515625 10.660156 -0.785156 7.921875 -3.390625 C 5.191406 -6.003906 3.828125 -9.753906 3.828125 -14.640625 L 3.828125 -37.359375 L 13.984375 -37.359375 L 13.984375 -15.4375 C 13.984375 -12.789062 14.472656 -10.867188 15.453125 -9.671875 C 16.441406 -8.484375 17.898438 -7.890625 19.828125 -7.890625 C 21.890625 -7.890625 23.382812 -8.484375 24.3125 -9.671875 C 25.25 -10.859375 25.71875 -12.796875 25.71875 -15.484375 L 25.71875 -37.359375 Z M 35.8125 -37.359375 "/></g></g></g><g fill="#222222" fill-opacity="1"><g transform="translate(208.728955, 320.959651)"><g><path d="M 35.75 -19.46875 C 35.75 -13.238281 34.03125 -8.4375 30.59375 -5.0625 C 27.164062 -1.6875 22.34375 0 16.125 0 L 4.03125 0 L 4.03125 -37.359375 L 16.96875 -37.359375 C 22.96875 -37.359375 27.597656 -35.828125 30.859375 -32.765625 C 34.117188 -29.703125 35.75 -25.269531 35.75 -19.46875 Z M 25.28125 -19.125 C 25.28125 -22.539062 24.601562 -25.078125 23.25 -26.734375 C 21.894531 -28.390625 19.835938 -29.21875 17.078125 -29.21875 L 14.140625 -29.21875 L 14.140625 -8.28125 L 16.390625 -8.28125 C 19.453125 -8.28125 21.695312 -9.171875 23.125 -10.953125 C 24.5625 -12.734375 25.28125 -15.457031 25.28125 -19.125 Z M 25.28125 -19.125 "/></g></g></g><g fill="#222222" fill-opacity="1"><g transform="translate(250.703558, 320.959651)"><g><path d="M 26.96875 0 L 25.125 -7 L 12.984375 -7 L 11.09375 0 L 0 0 L 12.1875 -37.515625 L 25.65625 -37.515625 L 38 0 Z M 23.03125 -15.28125 L 21.421875 -21.421875 C 21.046875 -22.785156 20.585938 -24.546875 20.046875 -26.703125 C 19.515625 -28.867188 19.160156 -30.421875 18.984375 -31.359375 C 18.835938 -30.492188 18.535156 -29.0625 18.078125 -27.0625 C 17.628906 -25.070312 16.628906 -21.144531 15.078125 -15.28125 Z M 23.03125 -15.28125 "/></g></g></g><g fill="#222222" fill-opacity="1"><g transform="translate(292.269222, 320.959651)"><g><path d="M 39.609375 0 L 26.375 0 L 12.734375 -26.328125 L 12.5 -26.328125 C 12.820312 -22.179688 12.984375 -19.019531 12.984375 -16.84375 L 12.984375 0 L 4.03125 0 L 4.03125 -37.359375 L 17.21875 -37.359375 L 30.828125 -11.40625 L 30.984375 -11.40625 C 30.742188 -15.164062 30.625 -18.1875 30.625 -20.46875 L 30.625 -37.359375 L 39.609375 -37.359375 Z M 39.609375 0 "/></g></g></g><g fill="#222222" fill-opacity="1"><g transform="translate(339.48333, 320.959651)"><g><path d="M 19.046875 -21.875 L 35.171875 -21.875 L 35.171875 -1.734375 C 30.785156 -0.234375 25.972656 0.515625 20.734375 0.515625 C 14.972656 0.515625 10.519531 -1.148438 7.375 -4.484375 C 4.226562 -7.828125 2.65625 -12.59375 2.65625 -18.78125 C 2.65625 -24.8125 4.375 -29.503906 7.8125 -32.859375 C 11.257812 -36.222656 16.082031 -37.90625 22.28125 -37.90625 C 24.632812 -37.90625 26.851562 -37.679688 28.9375 -37.234375 C 31.03125 -36.796875 32.851562 -36.234375 34.40625 -35.546875 L 31.203125 -27.625 C 28.515625 -28.957031 25.5625 -29.625 22.34375 -29.625 C 19.394531 -29.625 17.113281 -28.664062 15.5 -26.75 C 13.894531 -24.832031 13.09375 -22.09375 13.09375 -18.53125 C 13.09375 -15.039062 13.816406 -12.378906 15.265625 -10.546875 C 16.722656 -8.710938 18.828125 -7.796875 21.578125 -7.796875 C 23.078125 -7.796875 24.457031 -7.941406 25.71875 -8.234375 L 25.71875 -14.078125 L 19.046875 -14.078125 Z M 19.046875 -21.875 "/></g></g></g><g fill="#222222" fill-opacity="1"><g transform="translate(95.975143, 371.050981)"><g><path d="M 9.390625 0 L 3.53125 0 L 3.53125 -28.09375 L 19.640625 -28.09375 L 19.640625 -23.21875 L 9.390625 -23.21875 L 9.390625 -15.96875 L 18.9375 -15.96875 L 18.9375 -11.109375 L 9.390625 -11.109375 Z M 9.390625 0 "/></g></g></g><g fill="#222222" fill-opacity="1"><g transform="translate(123.901961, 371.050981)"><g><path d="M 3.53125 0 L 3.53125 -28.09375 L 9.5 -28.09375 L 9.5 0 Z M 3.53125 0 "/></g></g></g><g fill="#222222" fill-opacity="1"><g transform="translate(143.262054, 371.050981)"><g><path d="M 3.53125 0 L 3.53125 -28.09375 L 9.5 -28.09375 L 9.5 -4.921875 L 20.890625 -4.921875 L 20.890625 0 Z M 3.53125 0 "/></g></g></g><g fill="#222222" fill-opacity="1"><g transform="translate(171.822745, 371.050981)"><g><path d="M 26.140625 0 L 19.375 0 L 12.015625 -11.84375 L 9.5 -10.03125 L 9.5 0 L 3.53125 0 L 3.53125 -28.09375 L 9.5 -28.09375 L 9.5 -15.234375 L 11.84375 -18.546875 L 19.453125 -28.09375 L 26.0625 -28.09375 L 16.265625 -15.65625 Z M 26.140625 0 "/></g></g></g><g fill="#222222" fill-opacity="1"><g transform="translate(204.282629, 371.050981)"><g><path d="M 29.046875 -14.09375 C 29.046875 -9.4375 27.890625 -5.859375 25.578125 -3.359375 C 23.273438 -0.859375 19.96875 0.390625 15.65625 0.390625 C 11.351562 0.390625 8.046875 -0.859375 5.734375 -3.359375 C 3.429688 -5.859375 2.28125 -9.445312 2.28125 -14.125 C 2.28125 -18.800781 3.4375 -22.375 5.75 -24.84375 C 8.0625 -27.3125 11.378906 -28.546875 15.703125 -28.546875 C 20.015625 -28.546875 23.316406 -27.300781 25.609375 -24.8125 C 27.898438 -22.320312 29.046875 -18.75 29.046875 -14.09375 Z M 8.53125 -14.09375 C 8.53125 -10.945312 9.125 -8.578125 10.3125 -6.984375 C 11.507812 -5.398438 13.289062 -4.609375 15.65625 -4.609375 C 20.414062 -4.609375 22.796875 -7.769531 22.796875 -14.09375 C 22.796875 -20.414062 20.429688 -23.578125 15.703125 -23.578125 C 13.328125 -23.578125 11.535156 -22.78125 10.328125 -21.1875 C 9.128906 -19.59375 8.53125 -17.226562 8.53125 -14.09375 Z M 8.53125 -14.09375 "/></g></g></g><g fill="#222222" fill-opacity="1"><g transform="translate(241.928647, 371.050981)"><g><path d="M 15.4375 0 L 8.671875 -22.046875 L 8.5 -22.046875 C 8.738281 -17.554688 8.859375 -14.5625 8.859375 -13.0625 L 8.859375 0 L 3.53125 0 L 3.53125 -28.09375 L 11.640625 -28.09375 L 18.296875 -6.609375 L 18.40625 -6.609375 L 25.46875 -28.09375 L 33.578125 -28.09375 L 33.578125 0 L 28.015625 0 L 28.015625 -13.296875 C 28.015625 -13.921875 28.023438 -14.644531 28.046875 -15.46875 C 28.066406 -16.289062 28.15625 -18.46875 28.3125 -22 L 28.140625 -22 L 20.890625 0 Z M 15.4375 0 "/></g></g></g></svg>